<svg width="280" height="149" viewBox="0 0 280 149" fill="none" xmlns="http://www.w3.org/2000/svg">
<path d="M0 0H70V114C70 133.33 54.33 149 35 149C15.67 149 0 133.33 0 114V0Z" fill="#007BFF"/>
<path d="M70 0H140V114C140 133.33 124.33 149 105 149C85.67 149 70 133.33 70 114V0Z" fill="#94BEFF"/>
<path d="M140 0H210V114C210 133.33 194.33 149 175 149C155.67 149 140 133.33 140 114V0Z" fill="#007BFF"/>
<path d="M210 0H280V114C280 133.33 264.33 149 245 149C225.67 149 210 133.33 210 114V0Z" fill="#94BEFF"/>
</svg>
